<svg xmlns="http://www.w3.org/2000/svg" viewBox="0 0 720 582" font-family="-apple-system, BlinkMacSystemFont, 'Segoe UI', Helvetica, Arial, sans-serif">
<rect width="720" height="582" fill="#ffffff" rx="8"/>
<text x="360" y="28" text-anchor="middle" fill="#1f2328" font-size="16" font-weight="600">WolfXL vs openpyxl — Bulk Throughput (cells/sec)</text>
<text x="360" y="48" text-anchor="middle" fill="#656d76" font-size="11">Apple M4 Pro, Python 3.12, median of 3 runs</text>
<line x1="160.0" y1="70" x2="160.0" y2="532" stroke="#d0d7de" stroke-width="1" stroke-dasharray="3,3"/>
<text x="160.0" y="550" text-anchor="middle" fill="#656d76" font-size="10">0</text>
<line x1="275.0" y1="70" x2="275.0" y2="532" stroke="#d0d7de" stroke-width="1" stroke-dasharray="3,3"/>
<text x="275.0" y="550" text-anchor="middle" fill="#656d76" font-size="10">500K</text>
<line x1="390.0" y1="70" x2="390.0" y2="532" stroke="#d0d7de" stroke-width="1" stroke-dasharray="3,3"/>
<text x="390.0" y="550" text-anchor="middle" fill="#656d76" font-size="10">1.0M</text>
<line x1="505.0" y1="70" x2="505.0" y2="532" stroke="#d0d7de" stroke-width="1" stroke-dasharray="3,3"/>
<text x="505.0" y="550" text-anchor="middle" fill="#656d76" font-size="10">1.5M</text>
<line x1="620.0" y1="70" x2="620.0" y2="532" stroke="#d0d7de" stroke-width="1" stroke-dasharray="3,3"/>
<text x="620.0" y="550" text-anchor="middle" fill="#656d76" font-size="10">2.0M</text>
<text x="150" y="104" text-anchor="end" fill="#1f2328" font-size="12">Write 100K cells</text>
<rect x="160" y="75" width="372.6" height="20" fill="#0969da" rx="3"/>
<text x="538.6" y="90" fill="#1f2328" font-size="11" font-weight="500">1.6M/s</text>
<rect x="160" y="107" width="81.19" height="20" fill="#d0d7de" rx="3"/>
<text x="247.19" y="122" fill="#656d76" font-size="11">353K/s</text>
<text x="150" y="184" text-anchor="end" fill="#1f2328" font-size="12">Read 100K cells</text>
<rect x="160" y="155" width="209.52999999999997" height="20" fill="#0969da" rx="3"/>
<text x="375.53" y="170" fill="#1f2328" font-size="11" font-weight="500">911K/s</text>
<rect x="160" y="187" width="54.97" height="20" fill="#d0d7de" rx="3"/>
<text x="220.97" y="202" fill="#656d76" font-size="11">239K/s</text>
<text x="150" y="264" text-anchor="end" fill="#1f2328" font-size="12">Write 1M cells</text>
<rect x="160" y="235" width="269.09999999999997" height="20" fill="#0969da" rx="3"/>
<text x="435.09999999999997" y="250" fill="#1f2328" font-size="11" font-weight="500">1.2M/s</text>
<rect x="160" y="267" width="78.66000000000003" height="20" fill="#d0d7de" rx="3"/>
<text x="244.66000000000003" y="282" fill="#656d76" font-size="11">342K/s</text>
<text x="150" y="344" text-anchor="end" fill="#1f2328" font-size="12">Read 1M cells</text>
<rect x="160" y="315" width="201.71000000000004" height="20" fill="#0969da" rx="3"/>
<text x="367.71000000000004" y="330" fill="#1f2328" font-size="11" font-weight="500">877K/s</text>
<rect x="160" y="347" width="56.81" height="20" fill="#d0d7de" rx="3"/>
<text x="222.81" y="362" fill="#656d76" font-size="11">247K/s</text>
<text x="150" y="424" text-anchor="end" fill="#1f2328" font-size="12">Write 10M cells</text>
<rect x="160" y="395" width="345.0" height="20" fill="#0969da" rx="3"/>
<text x="511.0" y="410" fill="#1f2328" font-size="11" font-weight="500">1.5M/s</text>
<rect x="160" y="427" width="72.22" height="20" fill="#d0d7de" rx="3"/>
<text x="238.22" y="442" fill="#656d76" font-size="11">314K/s</text>
<text x="150" y="504" text-anchor="end" fill="#1f2328" font-size="12">Read 10M cells</text>
<rect x="160" y="475" width="177.10000000000002" height="20" fill="#0969da" rx="3"/>
<text x="343.1" y="490" fill="#1f2328" font-size="11" font-weight="500">770K/s</text>
<rect x="160" y="507" width="48.06999999999999" height="20" fill="#d0d7de" rx="3"/>
<text x="214.07" y="522" fill="#656d76" font-size="11">209K/s</text>
<rect x="160" y="556" width="12" height="12" fill="#0969da" rx="2"/>
<text x="176" y="566" fill="#1f2328" font-size="11" font-weight="500">WolfXL</text>
<rect x="240" y="556" width="12" height="12" fill="#d0d7de" rx="2"/>
<text x="256" y="566" fill="#656d76" font-size="11">openpyxl</text>
</svg>